<svg xmlns="http://www.w3.org/2000/svg" xmlns:xlink="http://www.w3.org/1999/xlink" width="430" height="932" viewBox="0 0 430 932">
  <defs>
    <style>
      .cls-1 {
        clip-path: url(#clip-Prereq2_Menu_2_);
      }

      .cls-2 {
        fill: #224039;
        stroke: #707070;
      }

      .cls-3, .cls-4 {
        fill: #fff;
      }

      .cls-3 {
        font-size: 20px;
        font-family: Sitka Heading;
      }

      .cls-5 {
        stroke: none;
      }

      .cls-6 {
        fill: none;
      }
    </style>
    <clipPath id="clip-Prereq2_Menu_2_">
      <rect width="430" height="932"/>
    </clipPath>
  </defs>
  <g id="Prereq2_Menu_2_" data-name="Prereq2 Menu (2)" class="cls-1">
    <g id="Rectangle_59" data-name="Rectangle 59" class="cls-2" transform="translate(70 445)">
      <rect class="cls-5" width="129" height="184"/>
      <rect class="cls-6" x="0.5" y="0.5" width="128" height="183"/>
    </g>
    <text id="_34_1500" data-name="34/1500" class="cls-3" transform="translate(76 521)"><tspan x="0" y="0">34/1500</tspan></text>
    <text id="_35_1540" data-name="35/1540" class="cls-3" transform="translate(76 495)"><tspan x="0" y="0">35/1540</tspan></text>
    <text id="_36_1590" data-name="36/1590" class="cls-3" transform="translate(76 469)"><tspan x="0" y="0">36/1590</tspan></text>
    <text id="_33_1460" data-name="33/1460" class="cls-3" transform="translate(76 545)"><tspan x="0" y="0">33/1460</tspan></text>
    <text id="_32_1430" data-name="32/1430" class="cls-3" transform="translate(76 568)"><tspan x="0" y="0">32/1430</tspan></text>
    <text id="_31_1400" data-name="31/1400" class="cls-3" transform="translate(76 591)"><tspan x="0" y="0">31/1400</tspan></text>
    <text id="_30_1370" data-name="30/1370" class="cls-3" transform="translate(76 615)"><tspan x="0" y="0">30/1370</tspan></text>
    <path id="Path_35" data-name="Path 35" class="cls-4" d="M11.18,15.83,6.543,9.2A1.4,1.4,0,0,1,7.689,7h8.622a1.4,1.4,0,0,1,1.147,2.2L12.819,15.83a1,1,0,0,1-1.638,0" transform="translate(172.713 502)"/>
  </g>
</svg>
