<svg xmlns="http://www.w3.org/2000/svg" width="19.588" height="21.382" viewBox="0 0 19.588 21.382"><defs><style>.a{fill:none;}.b{fill:#fff;}</style></defs><g transform="translate(-2 -3)"><path class="a" d="M12.593,23.258l-.011,0-.071.035-.02,0-.014,0-.071-.035a.02.02,0,0,0-.024,0l0,.01-.017.428.005.02.01.013.1.074.015,0,.012,0,.1-.074.012-.016,0-.017-.017-.427a.021.021,0,0,0-.017-.018m.265-.113-.013,0-.185.093-.01.01,0,.011.018.43.005.012.008.007.2.093a.025.025,0,0,0,.029-.008l0-.014-.034-.614a.028.028,0,0,0-.02-.022m-.715,0a.02.02,0,0,0-.027.006l-.006.014-.034.614a.025.025,0,0,0,.017.024l.015,0,.2-.093.01-.008,0-.011.017-.43,0-.012-.01-.01Z" transform="translate(0.326 0.568)"/><path class="b" d="M16.433,3a3.092,3.092,0,0,1,3.088,2.909l.005.181v10.3H20.3a1.289,1.289,0,0,1,1.282,1.156l.006.132v1.8a3.091,3.091,0,0,1-2.912,3.085l-.181.005H8.186A3.092,3.092,0,0,1,5.1,19.659l-.005-.181V9.179h-1.8A1.288,1.288,0,0,1,2.006,8.024L2,7.892V6.09A3.091,3.091,0,0,1,4.912,3.005L5.093,3Zm3.093,15.448H10.248v1.03a3.1,3.1,0,0,1-.175,1.03H18.5a1.03,1.03,0,0,0,1.031-1.03Zm-7.217-6.179H10.248a1.03,1.03,0,0,0-.121,2.053l.121.007h2.062a1.03,1.03,0,0,0,.121-2.053Zm2.062-4.12H10.248a1.03,1.03,0,1,0,0,2.06h4.124a1.03,1.03,0,1,0,0-2.06M5.093,5.06A1.03,1.03,0,0,0,4.062,6.09V7.12H5.093Z"/></g></svg>