<svg xmlns="http://www.w3.org/2000/svg" width="18" height="18" viewBox="0 0 18 18"><defs><style>.a{fill:#fff;}</style></defs><path class="a" d="M19.6,21l-6.3-6.3a5.959,5.959,0,0,1-1.725.95A6.1,6.1,0,0,1,9.5,16a6.272,6.272,0,0,1-4.612-1.888A6.279,6.279,0,0,1,3,9.5,6.269,6.269,0,0,1,4.888,4.888,6.276,6.276,0,0,1,9.5,3a6.28,6.28,0,0,1,4.613,1.888A6.26,6.26,0,0,1,16,9.5a6.1,6.1,0,0,1-.35,2.075A5.959,5.959,0,0,1,14.7,13.3L21,19.6ZM9.5,14A4.48,4.48,0,0,0,14,9.5,4.481,4.481,0,0,0,9.5,5,4.323,4.323,0,0,0,6.313,6.313,4.359,4.359,0,0,0,5,9.5,4.481,4.481,0,0,0,9.5,14" transform="translate(-3 -3)"/></svg>