<svg xmlns="http://www.w3.org/2000/svg" width="114.679" height="42.667" viewBox="0 0 114.679 42.667"><defs><style>.a{fill:#30574e;}.b,.c{stroke:none;}.c{fill:#707070;}</style></defs><g class="a"><path class="b" d="M 107.5858764648438 42.16741561889648 L 7.093583106994629 42.16741561889648 C 3.457875490188599 42.16741561889648 0.4999985992908478 39.57347869873047 0.4999985992908478 36.38510894775391 L 0.4999985992908478 6.282325267791748 C 0.4999985992908478 3.093940496444702 3.457875490188599 0.5000020265579224 7.093583106994629 0.5000020265579224 L 107.5858764648438 0.5000020265579224 C 111.2215805053711 0.5000020265579224 114.179443359375 3.093940496444702 114.179443359375 6.282325267791748 L 114.179443359375 36.38510894775391 C 114.179443359375 39.57347869873047 111.2215805053711 42.16741561889648 107.5858764648438 42.16741561889648 Z"/><path class="c" d="M 7.09356689453125 1.000003814697266 C 3.733566284179688 1.000003814697266 1 3.369647979736328 1 6.282325744628906 L 1 36.38510894775391 C 1 39.29778671264648 3.733566284179688 41.66741561889648 7.09356689453125 41.66741561889648 L 107.5858612060547 41.66741561889648 C 110.9458770751953 41.66741561889648 113.679443359375 39.29778671264648 113.679443359375 36.38510894775391 L 113.679443359375 6.282325744628906 C 113.679443359375 3.369647979736328 110.9458770751953 1.000003814697266 107.5858612060547 1.000003814697266 L 7.09356689453125 1.000003814697266 M 7.09356689453125 3.814697265625e-06 L 107.5858612060547 3.814697265625e-06 C 111.5035247802734 3.814697265625e-06 114.679443359375 2.812694549560547 114.679443359375 6.282325744628906 L 114.679443359375 36.38510894775391 C 114.679443359375 39.85474014282227 111.5035247802734 42.66741561889648 107.5858612060547 42.66741561889648 L 7.09356689453125 42.66741561889648 C 3.1759033203125 42.66741561889648 0 39.85474014282227 0 36.38510894775391 L 0 6.282325744628906 C 0 2.812694549560547 3.1759033203125 3.814697265625e-06 7.09356689453125 3.814697265625e-06 Z"/></g></svg>