<svg xmlns="http://www.w3.org/2000/svg" width="48.407" height="43.829" viewBox="0 0 48.407 43.829"><defs><style>.a{fill:#fff;}</style></defs><path class="a" d="M48.495,21.868a2.741,2.741,0,0,1-2.69,2.747h-2.69l.059,13.711a6.394,6.394,0,0,1-.042.693v1.387a3.392,3.392,0,0,1-3.362,3.423H38.424c-.092,0-.185,0-.277-.009-.118.009-.235.009-.353.009l-2.732-.009H33.044A3.392,3.392,0,0,1,29.681,40.4V32.865a2.712,2.712,0,0,0-2.69-2.739h-5.38a2.712,2.712,0,0,0-2.69,2.739V40.4a3.392,3.392,0,0,1-3.362,3.423h-4.7c-.126,0-.252-.009-.378-.017-.1.009-.2.017-.3.017H8.834A3.392,3.392,0,0,1,5.472,40.4V30.811a2.283,2.283,0,0,1,.008-.24V24.606H2.79A2.682,2.682,0,0,1,.1,21.859,2.807,2.807,0,0,1,.941,19.8L22.486.685A2.4,2.4,0,0,1,24.335,0,2.76,2.76,0,0,1,26.1.6L47.57,19.813a2.363,2.363,0,0,1,.925,2.054" transform="translate(-0.1)"/></svg>