<svg xmlns="http://www.w3.org/2000/svg" width="40.485" height="43" viewBox="0 0 40.485 43"><defs><style>.a{fill:#fff;}</style></defs><path class="a" d="M23.243,2C12.063,2,3,10.663,3,21.35A19.512,19.512,0,0,0,18.047,40.033L23.243,45l5.2-4.967A19.512,19.512,0,0,0,43.485,21.35C43.485,10.663,34.422,2,23.243,2m0,4.3a6.6,6.6,0,0,1,6.748,6.45,6.6,6.6,0,0,1-6.748,6.45A6.6,6.6,0,0,1,16.5,12.75,6.6,6.6,0,0,1,23.243,6.3m0,30.745a16.4,16.4,0,0,1-13.5-6.923c.068-4.278,9-6.622,13.5-6.622,4.476,0,13.428,2.344,13.5,6.622a16.4,16.4,0,0,1-13.5,6.923" transform="translate(-3 -2)"/></svg>