<svg xmlns="http://www.w3.org/2000/svg" width="42" height="39.5" viewBox="0 0 42 39.5"><defs><style>.a{fill:#fff;}</style></defs><path class="a" d="M14.839,12.927l-12.2,1.74-.216.043a1.9,1.9,0,0,0-1.359,1.343,1.862,1.862,0,0,0,.518,1.826l8.835,8.465L8.338,38.3l-.025.207A1.873,1.873,0,0,0,9.185,40.2a1.938,1.938,0,0,0,1.926.084L22.019,34.64,32.9,40.285l.191.087A1.936,1.936,0,0,0,35,40.08a1.866,1.866,0,0,0,.677-1.779L33.591,26.344l8.839-8.467.149-.16a1.858,1.858,0,0,0,.3-1.871,1.906,1.906,0,0,0-1.506-1.177l-12.2-1.742L23.722,2.052a1.925,1.925,0,0,0-3.429,0Z" transform="translate(-1.007 -1.002)"/></svg>