<svg xmlns="http://www.w3.org/2000/svg" width="42.04" height="37.773" viewBox="0 0 42.04 37.773"><defs><style>.a{fill:#fff;}</style></defs><path class="a" d="M42.129,18.846a2.371,2.371,0,0,1-2.336,2.368H37.457l.051,11.816a5.469,5.469,0,0,1-.037.6v1.195a2.935,2.935,0,0,1-2.92,2.95H33.383c-.08,0-.161,0-.241-.007-.1.007-.2.007-.307.007l-2.373-.007H28.711a2.935,2.935,0,0,1-2.92-2.95V28.324a2.346,2.346,0,0,0-2.336-2.36H18.782a2.346,2.346,0,0,0-2.336,2.36v6.491a2.935,2.935,0,0,1-2.92,2.95H9.445c-.11,0-.219-.007-.329-.015-.088.007-.175.015-.263.015H7.685a2.935,2.935,0,0,1-2.92-2.95V26.554a1.953,1.953,0,0,1,.007-.207V21.206H2.436A2.32,2.32,0,0,1,.1,18.838a2.41,2.41,0,0,1,.73-1.77L19.541.59A2.093,2.093,0,0,1,21.148,0a2.409,2.409,0,0,1,1.533.516L41.326,17.075a2.029,2.029,0,0,1,.8,1.77" transform="translate(-0.1)"/></svg>