<svg xmlns="http://www.w3.org/2000/svg" width="12.766" height="12.692" viewBox="0 0 12.766 12.692"><defs><style>.a{fill:#fff;}</style></defs><path class="a" d="M12.851,2H6.468A1.909,1.909,0,0,0,4.553,3.9v.635H3.915A1.909,1.909,0,0,0,2,6.442v6.346a1.909,1.909,0,0,0,1.915,1.9H10.3a1.909,1.909,0,0,0,1.915-1.9v-.635h.638a1.909,1.909,0,0,0,1.915-1.9V3.9A1.909,1.909,0,0,0,12.851,2M10.936,12.789a.636.636,0,0,1-.638.635H3.915a.636.636,0,0,1-.638-.635V8.346h7.659Zm0-5.712H3.277V6.442a.636.636,0,0,1,.638-.635H10.3a.636.636,0,0,1,.638.635Zm2.553,3.173a.636.636,0,0,1-.638.635h-.638V6.442a1.894,1.894,0,0,0-.115-.635h1.391Zm0-5.712H5.83V3.9a.636.636,0,0,1,.638-.635h6.383a.636.636,0,0,1,.638.635Z" transform="translate(-2 -2)"/></svg>