<svg xmlns="http://www.w3.org/2000/svg" width="22.138" height="19.723" viewBox="0 0 22.138 19.723"><defs><style>.a{fill:#fff;}</style></defs><path class="a" d="M13.18,19.714l-.111.107-.122-.107c-5.258-4.633-8.733-7.7-8.733-10.8A3.729,3.729,0,0,1,8.088,5.15,4.349,4.349,0,0,1,12.04,7.686H14.1A4.349,4.349,0,0,1,18.05,5.15a3.729,3.729,0,0,1,3.874,3.762c0,3.106-3.476,6.17-8.744,10.8M18.05,3a6.74,6.74,0,0,0-4.981,2.236A6.74,6.74,0,0,0,8.088,3,5.937,5.937,0,0,0,2,8.912c0,4.052,3.763,7.373,9.464,12.393l1.605,1.419,1.6-1.419c5.7-5.02,9.464-8.341,9.464-12.393A5.937,5.937,0,0,0,18.05,3" transform="translate(-2 -3)"/></svg>