<svg xmlns="http://www.w3.org/2000/svg" width="64.301" height="55.149" viewBox="0 0 64.301 55.149"><defs><style>.a{fill:#fff;}</style></defs><path class="a" d="M64.384,27.516a3.546,3.546,0,0,1-3.573,3.457H57.237l.078,17.252a7.627,7.627,0,0,1-.056.872v1.745a4.388,4.388,0,0,1-4.466,4.308H51.007c-.123,0-.246,0-.368-.011-.156.011-.313.011-.469.011l-3.629-.011H43.86a4.388,4.388,0,0,1-4.466-4.308V41.354a3.508,3.508,0,0,0-3.573-3.446H28.674A3.508,3.508,0,0,0,25.1,41.354v9.477a4.388,4.388,0,0,1-4.466,4.308H14.393c-.167,0-.335-.011-.5-.022-.134.011-.268.022-.4.022H11.7a4.388,4.388,0,0,1-4.466-4.308V38.769a2.722,2.722,0,0,1,.011-.3V30.962H3.673A3.486,3.486,0,0,1,1.217,24.92L29.836.862A3.294,3.294,0,0,1,32.292,0a3.8,3.8,0,0,1,2.345.754L63.155,24.931a2.908,2.908,0,0,1,1.228,2.585" transform="translate(-0.1)"/></svg>