<svg xmlns="http://www.w3.org/2000/svg" width="29.13" height="25.572" viewBox="0 0 29.13 25.572"><defs><style>.a{fill:#fff;}</style></defs><path class="a" d="M16.711,24.67l-.146.139-.16-.139C9.486,18.664,4.913,14.692,4.913,10.665a4.874,4.874,0,0,1,5.1-4.877,5.728,5.728,0,0,1,5.2,3.289H17.92a5.728,5.728,0,0,1,5.2-3.289,4.874,4.874,0,0,1,5.1,4.877c0,4.027-4.573,8-11.506,14.005M23.119,3a8.927,8.927,0,0,0-6.554,2.9A8.927,8.927,0,0,0,10.011,3,7.758,7.758,0,0,0,2,10.665c0,5.254,4.952,9.56,12.453,16.068l2.112,1.839,2.112-1.839c7.5-6.508,12.453-10.814,12.453-16.068A7.758,7.758,0,0,0,23.119,3" transform="translate(-2 -3)"/></svg>