<svg xmlns="http://www.w3.org/2000/svg" width="58.191" height="60.724" viewBox="0 0 58.191 60.724"><defs><style>.a{fill:#fff;}</style></defs><path class="a" d="M32.1,2C16.026,2,3,14.234,3,29.326,3,41.987,12.181,52.614,24.627,55.71L32.1,62.724l7.468-7.014c12.446-3.1,21.627-13.724,21.627-26.385C61.191,14.234,48.164,2,32.1,2m0,6.072c5.366,0,9.7,4.069,9.7,9.109s-4.332,9.109-9.7,9.109-9.7-4.069-9.7-9.109,4.332-9.109,9.7-9.109m0,43.418a23.708,23.708,0,0,1-19.4-9.777c.1-6.042,12.931-9.351,19.4-9.351,6.433,0,19.3,3.309,19.4,9.352A23.708,23.708,0,0,1,32.1,51.49" transform="translate(-3 -2)"/></svg>