<svg xmlns="http://www.w3.org/2000/svg" width="30.518" height="25.458" viewBox="0 0 30.518 25.458"><defs><style>.a{fill:#fff;}</style></defs><path class="a" d="M12.681,3h9.155l3.052,2.829h6.1a1.473,1.473,0,0,1,1.526,1.414v19.8a1.473,1.473,0,0,1-1.526,1.414H3.526A1.473,1.473,0,0,1,2,27.043V7.243A1.473,1.473,0,0,1,3.526,5.829h6.1Zm4.578,22.629c5.056,0,9.155-3.8,9.155-8.486s-4.1-8.486-9.155-8.486S8.1,12.456,8.1,17.143s4.1,8.486,9.155,8.486m0-2.829a5.893,5.893,0,0,1-6.1-5.657,5.893,5.893,0,0,1,6.1-5.657,5.893,5.893,0,0,1,6.1,5.657,5.893,5.893,0,0,1-6.1,5.657" transform="translate(-2 -3)"/></svg>