<svg xmlns="http://www.w3.org/2000/svg" width="35.867" height="33.479" viewBox="0 0 35.867 33.479"><defs><style>.a{fill:#fff;}</style></defs><path class="a" d="M27.073,2.49a2.808,2.808,0,0,1,3.17,0l8.967,6.7a1.4,1.4,0,0,1,0,2.367l-8.967,6.7a2.807,2.807,0,0,1-3.17,0,1.4,1.4,0,0,1,0-2.367l5.14-3.838H6.242C5,12.044,4,11.294,4,10.37S5,8.7,6.242,8.7H32.214l-5.14-3.838a1.4,1.4,0,0,1,0-2.367M16.793,19.23a1.4,1.4,0,0,1,0,2.367l-5.14,3.838H37.625c1.238,0,2.242.749,2.242,1.674s-1,1.674-2.242,1.674H11.653l5.14,3.838a1.4,1.4,0,0,1,0,2.367,2.807,2.807,0,0,1-3.17,0l-8.966-6.7a1.4,1.4,0,0,1,0-2.367l8.967-6.7a2.808,2.808,0,0,1,3.17,0" transform="translate(-4 -2)"/></svg>