<svg xmlns="http://www.w3.org/2000/svg" width="41.041" height="39.117" viewBox="0 0 41.041 39.117"><defs><style>.a{fill:#fff;}</style></defs><path class="a" d="M20.126,2.5A1.617,1.617,0,0,0,18.416,1a1.617,1.617,0,0,0-1.71,1.5V4.912a4.6,4.6,0,0,0,.684,2.407,8.019,8.019,0,0,0-5.951,5.555,3.381,3.381,0,0,1-2.6-3.147V5.513a1.617,1.617,0,0,0-1.71-1.5,1.617,1.617,0,0,0-1.71,1.5V9.726c0,3.028,2.439,5.629,5.816,6.2l0,3.123H3.71A1.617,1.617,0,0,0,2,20.558a1.617,1.617,0,0,0,1.71,1.5h7.524v5.115a8.969,8.969,0,0,0,.051.963c-3.367.426-5.866,2.965-5.865,5.958v4.513a1.617,1.617,0,0,0,1.71,1.5,1.617,1.617,0,0,0,1.71-1.5V34.1a3.217,3.217,0,0,1,3.3-3.009A11.419,11.419,0,0,0,22.52,37.114,11.419,11.419,0,0,0,32.9,31.09,3.217,3.217,0,0,1,36.2,34.1v4.513a1.724,1.724,0,0,0,3.42,0V34.1c0-2.994-2.5-5.532-5.867-5.958a7.951,7.951,0,0,0,.053-.963V22.063h7.524a1.617,1.617,0,0,0,1.71-1.5,1.617,1.617,0,0,0-1.71-1.5H33.806V15.93c3.377-.576,5.815-3.178,5.814-6.2V5.513a1.724,1.724,0,0,0-3.42,0V9.726a3.386,3.386,0,0,1-2.6,3.15A8.017,8.017,0,0,0,27.65,7.319a4.633,4.633,0,0,0,.681-2.407V2.5a1.724,1.724,0,0,0-3.42,0V4.912a2.264,2.264,0,0,1-2.394,2.106,2.264,2.264,0,0,1-2.394-2.106Z" transform="translate(-2 -1)"/></svg>