<svg xmlns="http://www.w3.org/2000/svg" xmlns:xlink="http://www.w3.org/1999/xlink" width="430" height="932" viewBox="0 0 430 932">
  <defs>
    <style>
      .cls-1 {
        clip-path: url(#clip-Home_Online_Prereq_2_3);
      }

      .cls-2, .cls-4, .cls-5 {
        fill: #fff;
      }

      .cls-3 {
        fill: #30574e;
      }

      .cls-4 {
        font-size: 16px;
        font-family: Ebrima-Bold, Ebrima;
        font-weight: 700;
      }

      .cls-5 {
        fill-rule: evenodd;
      }

      .cls-6 {
        fill: none;
      }

      .cls-7, .cls-8 {
        stroke: none;
      }

      .cls-8 {
        fill: #707070;
      }
    </style>
    <clipPath id="clip-Home_Online_Prereq_2_3">
      <rect width="430" height="932"/>
    </clipPath>
  </defs>
  <g id="Home_Online_Prereq_2_3" data-name="Home (Online, Prereq 2) – 3" class="cls-1">
    <path id="Path_23" data-name="Path 23" class="cls-2" d="M7.614,3.079a7.1,7.1,0,0,1,5.623,1.5l.042.035.038-.032a7.089,7.089,0,0,1,5.336-1.516l.277.038a6.649,6.649,0,0,1,5.26,4.213,6.015,6.015,0,0,1-1.468,6.326l-.2.195-.054.043-8.4,7.771a1.187,1.187,0,0,1-1.48.086l-.106-.086L4.034,13.836a6.036,6.036,0,0,1-1.742-6.4A6.636,6.636,0,0,1,7.614,3.079" transform="translate(357.36 434.342)"/>
    <g id="Path_17" data-name="Path 17" class="cls-3" transform="translate(284.512 555.188)">
      <path class="cls-7" d="M 107.5858764648438 42.16741561889648 L 7.093583106994629 42.16741561889648 C 3.457875490188599 42.16741561889648 0.4999985992908478 39.57347869873047 0.4999985992908478 36.38510894775391 L 0.4999985992908478 6.282325267791748 C 0.4999985992908478 3.093940496444702 3.457875490188599 0.5000020265579224 7.093583106994629 0.5000020265579224 L 107.5858764648438 0.5000020265579224 C 111.2215805053711 0.5000020265579224 114.179443359375 3.093940496444702 114.179443359375 6.282325267791748 L 114.179443359375 36.38510894775391 C 114.179443359375 39.57347869873047 111.2215805053711 42.16741561889648 107.5858764648438 42.16741561889648 Z"/>
      <path class="cls-8" d="M 7.09356689453125 1.000003814697266 C 3.733566284179688 1.000003814697266 1 3.369647979736328 1 6.282325744628906 L 1 36.38510894775391 C 1 39.29778671264648 3.733566284179688 41.66741561889648 7.09356689453125 41.66741561889648 L 107.5858612060547 41.66741561889648 C 110.9458770751953 41.66741561889648 113.679443359375 39.29778671264648 113.679443359375 36.38510894775391 L 113.679443359375 6.282325744628906 C 113.679443359375 3.369647979736328 110.9458770751953 1.000003814697266 107.5858612060547 1.000003814697266 L 7.09356689453125 1.000003814697266 M 7.09356689453125 3.814697265625e-06 L 107.5858612060547 3.814697265625e-06 C 111.5035247802734 3.814697265625e-06 114.679443359375 2.812694549560547 114.679443359375 6.282325744628906 L 114.679443359375 36.38510894775391 C 114.679443359375 39.85474014282227 111.5035247802734 42.66741561889648 107.5858612060547 42.66741561889648 L 7.09356689453125 42.66741561889648 C 3.1759033203125 42.66741561889648 0 39.85474014282227 0 36.38510894775391 L 0 6.282325744628906 C 0 2.812694549560547 3.1759033203125 3.814697265625e-06 7.09356689453125 3.814697265625e-06 Z"/>
    </g>
    <text id="Continue" class="cls-4" transform="translate(332 583)"><tspan x="-34.117" y="0">Continue</tspan></text>
    <path id="Path_25" data-name="Path 25" class="cls-5" d="M9,6.75a.75.75,0,0,1,0-1.5h9a.75.75,0,0,1,.75.75v9a.75.75,0,0,1-1.5,0V7.81L6.53,18.53a.75.75,0,0,1-1.06-1.06L16.19,6.75Z" transform="translate(368.731 566.269)"/>
    <g id="Path_28" data-name="Path 28" class="cls-3" transform="translate(284.512 555.188)">
      <path class="cls-7" d="M 107.5858764648438 42.16741561889648 L 7.093583106994629 42.16741561889648 C 3.457875490188599 42.16741561889648 0.4999985992908478 39.57347869873047 0.4999985992908478 36.38510894775391 L 0.4999985992908478 6.282325267791748 C 0.4999985992908478 3.093940496444702 3.457875490188599 0.5000020265579224 7.093583106994629 0.5000020265579224 L 107.5858764648438 0.5000020265579224 C 111.2215805053711 0.5000020265579224 114.179443359375 3.093940496444702 114.179443359375 6.282325267791748 L 114.179443359375 36.38510894775391 C 114.179443359375 39.57347869873047 111.2215805053711 42.16741561889648 107.5858764648438 42.16741561889648 Z"/>
      <path class="cls-8" d="M 7.09356689453125 1.000003814697266 C 3.733566284179688 1.000003814697266 1 3.369647979736328 1 6.282325744628906 L 1 36.38510894775391 C 1 39.29778671264648 3.733566284179688 41.66741561889648 7.09356689453125 41.66741561889648 L 107.5858612060547 41.66741561889648 C 110.9458770751953 41.66741561889648 113.679443359375 39.29778671264648 113.679443359375 36.38510894775391 L 113.679443359375 6.282325744628906 C 113.679443359375 3.369647979736328 110.9458770751953 1.000003814697266 107.5858612060547 1.000003814697266 L 7.09356689453125 1.000003814697266 M 7.09356689453125 3.814697265625e-06 L 107.5858612060547 3.814697265625e-06 C 111.5035247802734 3.814697265625e-06 114.679443359375 2.812694549560547 114.679443359375 6.282325744628906 L 114.679443359375 36.38510894775391 C 114.679443359375 39.85474014282227 111.5035247802734 42.66741561889648 107.5858612060547 42.66741561889648 L 7.09356689453125 42.66741561889648 C 3.1759033203125 42.66741561889648 0 39.85474014282227 0 36.38510894775391 L 0 6.282325744628906 C 0 2.812694549560547 3.1759033203125 3.814697265625e-06 7.09356689453125 3.814697265625e-06 Z"/>
    </g>
    <text id="Continue-2" data-name="Continue" class="cls-4" transform="translate(332 583)"><tspan x="-34.117" y="0">Continue</tspan></text>
    <path id="Path_29" data-name="Path 29" class="cls-5" d="M9,6.75a.75.75,0,0,1,0-1.5h9a.75.75,0,0,1,.75.75v9a.75.75,0,0,1-1.5,0V7.81L6.53,18.53a.75.75,0,0,1-1.06-1.06L16.19,6.75Z" transform="translate(368.731 566.269)"/>
    <g id="Path_30" data-name="Path 30" class="cls-3" transform="translate(284.512 555.188)">
      <path class="cls-7" d="M 107.5858764648438 42.16741561889648 L 7.093583106994629 42.16741561889648 C 3.457875490188599 42.16741561889648 0.4999985992908478 39.57347869873047 0.4999985992908478 36.38510894775391 L 0.4999985992908478 6.282325267791748 C 0.4999985992908478 3.093940496444702 3.457875490188599 0.5000020265579224 7.093583106994629 0.5000020265579224 L 107.5858764648438 0.5000020265579224 C 111.2215805053711 0.5000020265579224 114.179443359375 3.093940496444702 114.179443359375 6.282325267791748 L 114.179443359375 36.38510894775391 C 114.179443359375 39.57347869873047 111.2215805053711 42.16741561889648 107.5858764648438 42.16741561889648 Z"/>
      <path class="cls-8" d="M 7.09356689453125 1.000003814697266 C 3.733566284179688 1.000003814697266 1 3.369647979736328 1 6.282325744628906 L 1 36.38510894775391 C 1 39.29778671264648 3.733566284179688 41.66741561889648 7.09356689453125 41.66741561889648 L 107.5858612060547 41.66741561889648 C 110.9458770751953 41.66741561889648 113.679443359375 39.29778671264648 113.679443359375 36.38510894775391 L 113.679443359375 6.282325744628906 C 113.679443359375 3.369647979736328 110.9458770751953 1.000003814697266 107.5858612060547 1.000003814697266 L 7.09356689453125 1.000003814697266 M 7.09356689453125 3.814697265625e-06 L 107.5858612060547 3.814697265625e-06 C 111.5035247802734 3.814697265625e-06 114.679443359375 2.812694549560547 114.679443359375 6.282325744628906 L 114.679443359375 36.38510894775391 C 114.679443359375 39.85474014282227 111.5035247802734 42.66741561889648 107.5858612060547 42.66741561889648 L 7.09356689453125 42.66741561889648 C 3.1759033203125 42.66741561889648 0 39.85474014282227 0 36.38510894775391 L 0 6.282325744628906 C 0 2.812694549560547 3.1759033203125 3.814697265625e-06 7.09356689453125 3.814697265625e-06 Z"/>
    </g>
    <text id="Continue-3" data-name="Continue" class="cls-4" transform="translate(332 583)"><tspan x="-34.117" y="0">Continue</tspan></text>
    <path id="Path_31" data-name="Path 31" class="cls-5" d="M9,6.75a.75.75,0,0,1,0-1.5h9a.75.75,0,0,1,.75.75v9a.75.75,0,0,1-1.5,0V7.81L6.53,18.53a.75.75,0,0,1-1.06-1.06L16.19,6.75Z" transform="translate(368.731 566.269)"/>
    <g id="Path_32" data-name="Path 32" class="cls-3" transform="translate(284.512 555.188)">
      <path class="cls-7" d="M 107.5858764648438 42.16741561889648 L 7.093583106994629 42.16741561889648 C 3.457875490188599 42.16741561889648 0.4999985992908478 39.57347869873047 0.4999985992908478 36.38510894775391 L 0.4999985992908478 6.282325267791748 C 0.4999985992908478 3.093940496444702 3.457875490188599 0.5000020265579224 7.093583106994629 0.5000020265579224 L 107.5858764648438 0.5000020265579224 C 111.2215805053711 0.5000020265579224 114.179443359375 3.093940496444702 114.179443359375 6.282325267791748 L 114.179443359375 36.38510894775391 C 114.179443359375 39.57347869873047 111.2215805053711 42.16741561889648 107.5858764648438 42.16741561889648 Z"/>
      <path class="cls-8" d="M 7.09356689453125 1.000003814697266 C 3.733566284179688 1.000003814697266 1 3.369647979736328 1 6.282325744628906 L 1 36.38510894775391 C 1 39.29778671264648 3.733566284179688 41.66741561889648 7.09356689453125 41.66741561889648 L 107.5858612060547 41.66741561889648 C 110.9458770751953 41.66741561889648 113.679443359375 39.29778671264648 113.679443359375 36.38510894775391 L 113.679443359375 6.282325744628906 C 113.679443359375 3.369647979736328 110.9458770751953 1.000003814697266 107.5858612060547 1.000003814697266 L 7.09356689453125 1.000003814697266 M 7.09356689453125 3.814697265625e-06 L 107.5858612060547 3.814697265625e-06 C 111.5035247802734 3.814697265625e-06 114.679443359375 2.812694549560547 114.679443359375 6.282325744628906 L 114.679443359375 36.38510894775391 C 114.679443359375 39.85474014282227 111.5035247802734 42.66741561889648 107.5858612060547 42.66741561889648 L 7.09356689453125 42.66741561889648 C 3.1759033203125 42.66741561889648 0 39.85474014282227 0 36.38510894775391 L 0 6.282325744628906 C 0 2.812694549560547 3.1759033203125 3.814697265625e-06 7.09356689453125 3.814697265625e-06 Z"/>
    </g>
    <text id="Finish_" data-name="Finish!" class="cls-4" transform="translate(332 583)"><tspan x="-24.5" y="0">Finish!</tspan></text>
    <path id="Path_33" data-name="Path 33" class="cls-5" d="M9,6.75a.75.75,0,0,1,0-1.5h9a.75.75,0,0,1,.75.75v9a.75.75,0,0,1-1.5,0V7.81L6.53,18.53a.75.75,0,0,1-1.06-1.06L16.19,6.75Z" transform="translate(368.731 566.269)"/>
    <rect id="Rectangle_64" data-name="Rectangle 64" class="cls-6" width="60" height="74" transform="translate(344 415)"/>
  </g>
</svg>
